<?xml version="1.0" encoding="UTF-8"?>
<svg version="1.1" xmlns="http://www.w3.org/2000/svg" width="500" height="500">
<path d="M0 0 C165 0 330 0 500 0 C500 165 500 330 500 500 C335 500 170 500 0 500 C0 335 0 170 0 0 Z " fill="#EDE9E6" transform="translate(0,0)"/>
<path d="M0 0 C6.80197313 2.78523816 12.99256188 3.80931535 20.32421875 3.6328125 C21.05125 3.62378906 21.77828125 3.61476562 22.52734375 3.60546875 C24.29311595 3.58223491 26.05871489 3.54637933 27.82421875 3.5078125 C32.23196362 11.7697715 32.23196362 11.7697715 32.82421875 16.5078125 C33.54609375 16.3840625 34.26796875 16.2603125 35.01171875 16.1328125 C37.82421875 16.5078125 37.82421875 16.5078125 40.38671875 18.6953125 C46.51670857 26.86149192 47.89814592 39.44474261 50.19921875 49.1953125 C50.49449463 50.43756592 50.78977051 51.67981934 51.09399414 52.9597168 C51.70384557 55.53093386 52.31167049 58.10263241 52.91748047 60.67480469 C53.80260554 64.41644809 54.70444708 68.15372842 55.609375 71.890625 C56.16078025 74.20037196 56.71158793 76.51026167 57.26171875 78.8203125 C57.52065918 79.88016357 57.77959961 80.94001465 58.04638672 82.03198242 C61.27319413 95.75975575 61.27319413 95.75975575 58.01171875 101.9453125 C55.82421875 104.5078125 55.82421875 104.5078125 52.82421875 105.5078125 C50.27082005 105.60205191 47.74426442 105.64110856 45.19091797 105.63378906 C44.41489731 105.6356572 43.63887665 105.63752533 42.83934021 105.63945007 C41.15331225 105.6434538 39.46727886 105.64552889 37.78124619 105.64591217 C34.18895812 105.64933244 30.59685027 105.6707054 27.00462532 105.69114304 C20.31816418 105.72911707 13.63189381 105.76043339 6.9453125 105.75830078 C2.29261197 105.75751101 -2.35943054 105.78099308 -7.01195908 105.8201828 C-8.7796215 105.83060675 -10.54736022 105.83219352 -12.31503677 105.82453156 C-24.55395254 105.55179895 -24.55395254 105.55179895 -35.54586792 110.37283325 C-38.02402497 112.09848134 -40.21284878 112.17396434 -43.17578125 112.1328125 C-44.10390625 112.14570313 -45.03203125 112.15859375 -45.98828125 112.171875 C-49.19975759 111.50281743 -50.14517408 110.83749282 -52.70996094 108.99951172 C-59.373802 105.24390833 -66.73915655 105.86179091 -74.16059113 105.9467926 C-76.85996072 105.97705072 -79.55775644 105.97578885 -82.25726318 105.9666748 C-87.98030541 105.95281477 -93.70282497 105.97745804 -99.42578125 106.0078125 C-106.07505628 106.04298576 -112.72356564 106.06219981 -119.37291718 106.03968811 C-122.02845939 106.03907131 -124.68260851 106.06822163 -127.33795166 106.09851074 C-128.96651457 106.09643633 -130.59507651 106.09297113 -132.22363281 106.08789062 C-132.95827759 106.10437149 -133.69292236 106.12085236 -134.4498291 106.13783264 C-138.39755284 106.09129273 -140.01759639 105.63779131 -143.11029053 103.09655762 C-146.63692553 98.67651397 -146.60089088 95.01458538 -146.17578125 89.5078125 C-145.48234602 85.86431566 -144.5001745 82.32434653 -143.48828125 78.7578125 C-142.93168693 76.71406001 -142.37703947 74.66977645 -141.82421875 72.625 C-141.54545898 71.60116211 -141.26669922 70.57732422 -140.97949219 69.52246094 C-139.77259573 64.99549937 -138.68469143 60.44342836 -137.61328125 55.8828125 C-137.41202637 55.03614014 -137.21077148 54.18946777 -137.00341797 53.31713867 C-135.93316633 48.79796466 -134.89829158 44.27269249 -133.89453125 39.73828125 C-133.67998291 38.78969238 -133.46543457 37.84110352 -133.24438477 36.86376953 C-132.83594413 35.05588647 -132.43732943 33.2457435 -132.05053711 31.43310547 C-130.64373138 25.26111692 -128.71886494 21.05089619 -124.17578125 16.5078125 C-121.55078125 16.3828125 -121.55078125 16.3828125 -119.17578125 16.5078125 C-118.98242188 15.82074219 -118.7890625 15.13367188 -118.58984375 14.42578125 C-118.32945312 13.52472656 -118.0690625 12.62367188 -117.80078125 11.6953125 C-117.54554688 10.80199219 -117.2903125 9.90867188 -117.02734375 8.98828125 C-116.17578125 6.5078125 -116.17578125 6.5078125 -114.17578125 3.5078125 C-111.19921875 3.28515625 -111.19921875 3.28515625 -107.55078125 3.4453125 C-98.56896541 3.6189183 -92.11608625 1.60358793 -83.7890625 -1.58984375 C-75.57240758 -4.42698468 -65.10287526 -5.21899753 -57.01953125 -1.60546875 C-51.50968368 1.72145192 -47.1960013 5.8029524 -44.17578125 11.5078125 C-43.51578125 11.8378125 -42.85578125 12.1678125 -42.17578125 12.5078125 C-41.89734375 11.5178125 -41.89734375 11.5178125 -41.61328125 10.5078125 C-38.65500155 4.33401139 -33.89881556 -1.14302349 -27.51171875 -3.859375 C-17.5307955 -6.56323715 -9.14284722 -3.84851169 0 0 Z " fill="#A59E9F" transform="translate(293.17578125,215.4921875)"/>
<path d="M0 0 C0.7842334 0.00016113 1.5684668 0.00032227 2.37646484 0.00048828 C9.11348262 0.12714902 15.39155403 1.32196877 21.94482422 2.80224609 C32.45856422 5.09759977 43.15602257 5.69222723 53.875 6.375 C54.88105593 8.97697202 55.88002525 11.58129362 56.875 14.1875 C57.16117187 14.92548828 57.44734375 15.66347656 57.7421875 16.42382812 C58.14824219 17.49213867 58.14824219 17.49213867 58.5625 18.58203125 C58.81386719 19.2366333 59.06523437 19.89123535 59.32421875 20.56567383 C59.875 22.375 59.875 22.375 59.875 25.375 C48.1331075 25.98373867 37.30068958 25.14160046 25.75 22.875 C3.21127013 18.44355418 3.21127013 18.44355418 -18.125 25.375 C-20.45186038 27.15414759 -22.59859245 28.97979267 -24.69921875 31.01953125 C-26.125 32.375 -26.125 32.375 -27.125 32.375 C-28.1577036 15.54575612 -28.1577036 15.54575612 -24.5625 10.625 C-22.90234375 8.8828125 -22.90234375 8.8828125 -21.125 7.375 C-20.54878906 6.87742187 -19.97257812 6.37984375 -19.37890625 5.8671875 C-13.45059121 1.24600651 -7.45534168 -0.01478257 0 0 Z " fill="#ECE7E5" transform="translate(279.125,279.625)"/>
<path d="M0 0 C2.63449521 1.93090512 4.82884024 3.93581388 6.9453125 6.42578125 C7.64398438 7.12058594 8.34265625 7.81539063 9.0625 8.53125 C11.65283771 12.51349117 11.39729065 15.60443647 11.1953125 20.23828125 C11.17726563 21.02654297 11.15921875 21.81480469 11.140625 22.62695312 C11.09375298 24.56042386 11.0220166 26.4932641 10.9453125 28.42578125 C10.25308594 27.86310547 10.25308594 27.86310547 9.546875 27.2890625 C-2.996837 17.44745447 -14.37964384 15.07901187 -30.0546875 16.42578125 C-35.51391265 17.29439169 -40.90464455 18.47873602 -46.30859375 19.63598633 C-56.32154334 21.69062816 -65.87769799 21.94267124 -76.0546875 21.42578125 C-75.36940236 17.28292108 -74.07578307 13.58464312 -72.5546875 9.67578125 C-72.11125 8.5259375 -71.6678125 7.37609375 -71.2109375 6.19140625 C-70.0546875 3.42578125 -70.0546875 3.42578125 -69.0546875 2.42578125 C-67.19763828 2.3484042 -65.34013099 2.27757451 -63.48193359 2.23608398 C-54.53662779 2.01384595 -46.16628239 0.77875226 -37.4296875 -1.13671875 C-11.2045952 -6.74174796 -11.2045952 -6.74174796 0 0 Z " fill="#ECE8E5" transform="translate(237.0546875,283.57421875)"/>
<path d="M0 0 C0.66 0 1.32 0 2 0 C0.38393518 8.19308321 -1.32228604 16.36658916 -3.0390625 24.5390625 C-3.32770805 25.91481688 -3.61631206 27.29057997 -3.90487671 28.66635132 C-4.65738358 32.25348432 -5.41044753 35.84050014 -6.16363525 39.42749023 C-6.93495341 43.10132789 -7.70573403 46.77527832 -8.4765625 50.44921875 C-9.98385467 57.63292177 -11.49173651 64.81650084 -13 72 C0.6220115 74.81432408 13.38054897 71.85772588 26.8046875 69.19140625 C38.60527754 66.86636318 52.74481989 64.37240995 64 70 C64 74.29 64 78.58 64 83 C53.63845525 83.09265073 43.27700893 83.16373997 32.91513443 83.20724869 C28.10375596 83.22813 23.29266075 83.25645754 18.48144531 83.30175781 C13.83895837 83.34519622 9.19674399 83.36913301 4.55406952 83.37950897 C2.78220071 83.38690396 1.01034693 83.40134463 -0.76140594 83.42292023 C-3.24198221 83.45192815 -5.72143004 83.45595719 -8.20214844 83.45410156 C-8.93582642 83.46848267 -9.66950439 83.48286377 -10.42541504 83.49768066 C-13.79673483 83.4703643 -15.69324182 83.21988265 -18.46388245 81.23390198 C-21.3251596 77.07288404 -20.44001632 72.60873306 -19.63052368 67.80947876 C-19.14243705 65.56856008 -18.58069867 63.3600977 -17.98828125 61.14453125 C-17.77967468 60.32803604 -17.57106812 59.51154083 -17.35614014 58.67030334 C-16.6845308 56.04845338 -15.99864947 53.43057811 -15.3125 50.8125 C-14.38610268 47.21860314 -13.4665342 43.62296985 -12.546875 40.02734375 C-12.32197891 39.15233215 -12.09708282 38.27732056 -11.8653717 37.37579346 C-9.90774217 29.72840302 -8.13211712 22.05099739 -6.53442383 14.31958008 C-5.37389381 8.90963745 -4.02475822 4.02475822 0 0 Z " fill="#EBE7E4" transform="translate(170,235)"/>
<path d="M0 0 C3.04103107 1.0486314 3.92145337 1.86107425 5.53369141 4.71264648 C6.91608785 7.81187528 7.84621726 10.68197513 8.6484375 13.97265625 C8.92913086 15.10944824 9.20982422 16.24624023 9.49902344 17.41748047 C9.7880957 18.62033691 10.07716797 19.82319336 10.375 21.0625 C10.67954102 22.30660645 10.98408203 23.55071289 11.29785156 24.83251953 C12.20617712 28.55321588 13.10419511 32.27627198 14 36 C14.48686886 38.00653719 14.97383843 40.01304994 15.4609375 42.01953125 C16.48619766 46.26276954 17.49220394 50.51008948 18.47998047 54.76220703 C18.81742782 56.21433964 19.15744527 57.66587831 19.50048828 59.11669922 C22.77534611 73.01875857 22.77534611 73.01875857 22 79 C20.46002197 81.18255615 20.46002197 81.18255615 18 83 C15.26262419 83.37426934 12.93413742 83.50765233 10.20214844 83.45410156 C9.42127869 83.45468567 8.64040894 83.45526978 7.83587646 83.45587158 C5.25992065 83.45308923 2.68512815 83.42199135 0.109375 83.390625 C-1.6785214 83.38316312 -3.46642599 83.37746994 -5.2543335 83.37347412 C-9.95632574 83.35821357 -14.65782246 83.31892824 -19.35961914 83.2746582 C-24.15894874 83.23371452 -28.95835853 83.21546504 -33.7578125 83.1953125 C-43.17209252 83.15243431 -52.58600503 83.08417794 -62 83 C-62 78.71 -62 74.42 -62 70 C-49.32575427 65.45997168 -37.88250046 66.85167159 -24.875 69.4375 C-11.56128907 72.02346017 1.50985964 74.31561772 15 72 C14.82682755 71.17172195 14.65365509 70.34344391 14.47523499 69.49006653 C12.84183849 61.67739446 11.20864939 53.86467907 9.57569218 46.05191517 C8.73620388 42.03548142 7.89663591 38.01906435 7.05688477 34.00268555 C6.2462095 30.1253567 5.43574494 26.24798386 4.62542534 22.37058067 C4.31651726 20.89263026 4.00753377 19.4146956 3.69847298 17.93677711 C3.26500843 15.86389917 2.8318141 13.79096493 2.39868164 11.71801758 C2.15219376 10.53887283 1.90570587 9.35972809 1.65174866 8.14485168 C1.08954265 5.43206588 0.5389984 2.7174777 0 0 Z " fill="#ECE8E5" transform="translate(328,235)"/>
<path d="M0 0 C5.17724852 2.85360154 9.0942193 6.6259386 11.75 11.9375 C12.74 12.5975 13.73 13.2575 14.75 13.9375 C12.99609375 14.64453125 12.99609375 14.64453125 10.75 14.9375 C8.78515625 13.57421875 8.78515625 13.57421875 6.8125 11.625 C1.18329335 6.10770601 -3.73549822 5.5137103 -11.48388672 5.49487305 C-17.87576378 5.64571171 -23.61560485 7.14176164 -29.71875 8.94091797 C-37.16147234 11.0810027 -44.61780133 12.09981351 -52.30517578 12.94848633 C-53.64298096 13.10353638 -53.64298096 13.10353638 -55.0078125 13.26171875 C-55.8033252 13.34510498 -56.59883789 13.42849121 -57.41845703 13.5144043 C-58.02286621 13.65402588 -58.62727539 13.79364746 -59.25 13.9375 C-59.58 14.5975 -59.91 15.2575 -60.25 15.9375 C-47.16943704 14.59143723 -34.61829917 12.60218842 -22 8.75 C-12.80837051 6.10330312 -6.14936573 5.60078213 2.41015625 10.29296875 C6.18994484 12.94954805 8.99352492 16.25915743 11.75 19.9375 C11.42 20.5975 11.09 21.2575 10.75 21.9375 C9.12239583 20.9609375 7.49479167 19.984375 5.8671875 19.0078125 C0.23043694 16.15823749 -4.8547552 15.51984296 -11.0625 15.5 C-11.92125732 15.49613281 -12.78001465 15.49226563 -13.66479492 15.48828125 C-22.09904493 15.63249498 -30.0558617 17.32745851 -38.26464844 19.14746094 C-46.43016589 20.91525338 -53.91349288 21.54748833 -62.25 20.9375 C-62.13557539 19.33254433 -62.00805306 17.72851881 -61.875 16.125 C-61.77058594 14.78501953 -61.77058594 14.78501953 -61.6640625 13.41796875 C-61.25 10.9375 -61.25 10.9375 -59.25 7.9375 C-57.359375 7.71484375 -57.359375 7.71484375 -55 7.875 C-43.37784837 8.19364485 -32.35072008 5.93349279 -21.921875 0.7890625 C-14.29604539 -2.97052482 -7.87761247 -3.56677506 0 0 Z " fill="#E6E2DF" transform="translate(231.25,262.0625)"/>
<path d="M0 0 C6.12570633 3.57332869 9.78974867 7.43878249 13 13.75 C13 14.41 13 15.07 13 15.75 C12.01 15.75 11.02 15.75 10 15.75 C10.495 16.513125 10.99 17.27625 11.5 18.0625 C13 20.75 13 20.75 13 23.75 C8.75196324 22.23284402 7.41464964 19.40856007 5 15.75 C-0.36914184 10.91777235 -4.23092871 9.33385881 -11.375 9.5 C-15.54188409 9.8968461 -19.10920366 11.26917453 -23 12.75 C-34.68148432 16.875103 -44.51362501 18.95657606 -57 18.75 C-56.69217504 17.10328588 -56.37860766 15.45764424 -56.0625 13.8125 C-55.88847656 12.89597656 -55.71445313 11.97945312 -55.53515625 11.03515625 C-55 8.75 -55 8.75 -54 7.75 C-51.91846065 7.61463978 -49.83438794 7.51784535 -47.75 7.4375 C-38.49757533 6.83571628 -30.40655074 4.31006574 -22 0.5 C-15.20676979 -2.30373123 -6.91515595 -2.72689156 0 0 Z " fill="#E1DDDA" transform="translate(233,228.25)"/>
<path d="M0 0 C3.79033152 3.23317811 6.79464353 6.86510915 8.75390625 11.49609375 C5.9677556 10.3173377 4.19824361 9.01290885 1.87890625 6.99609375 C-3.07998781 2.82471636 -8.35889087 1.89035185 -14.7265625 1.96875 C-20.35308912 2.81179228 -25.50463514 4.87745447 -30.82177734 6.84960938 C-39.92074078 10.20194927 -48.53558563 11.86957483 -58.24609375 11.49609375 C-58.24609375 12.15609375 -58.24609375 12.81609375 -58.24609375 13.49609375 C-46.12826749 13.15665884 -35.33634042 11.30080635 -24.18359375 6.24609375 C-17.6824616 3.54710643 -10.65373693 3.34564855 -3.8515625 5.12109375 C1.49721381 7.41196544 4.89992983 11.50163502 7.75390625 16.49609375 C7.75390625 17.15609375 7.75390625 17.81609375 7.75390625 18.49609375 C8.41390625 18.82609375 9.07390625 19.15609375 9.75390625 19.49609375 C8.76390625 19.49609375 7.77390625 19.49609375 6.75390625 19.49609375 C6.07328125 18.58859375 5.39265625 17.68109375 4.69140625 16.74609375 C0.51065018 11.4320002 -5.69946741 9.81947487 -12.18359375 8.99609375 C-17.50737826 9.295423 -22.35452783 11.52876081 -27.24609375 13.49609375 C-38.32285757 17.85159636 -48.30979217 19.91167098 -60.24609375 19.49609375 C-60.24609375 20.15609375 -60.24609375 20.81609375 -60.24609375 21.49609375 C-60.90609375 21.49609375 -61.56609375 21.49609375 -62.24609375 21.49609375 C-61.64500799 15.84588757 -60.17080692 10.83444914 -58.24609375 5.49609375 C-57.6634375 5.51929688 -57.08078125 5.5425 -56.48046875 5.56640625 C-45.64402055 5.80494442 -36.31609294 3.87787866 -26.40942383 -0.38330078 C-17.56224452 -4.18769495 -8.2331844 -5.8713416 0 0 Z " fill="#E3DEDC" transform="translate(235.24609375,240.50390625)"/>
<path d="M0 0 C2.9375 2 2.9375 2 5 4 C5.33 3.01 5.66 2.02 6 1 C9.12860495 -0.56430248 11.55602925 -0.35627284 15 0 C18.15284933 2.6011007 18.9143163 4.12602628 19.3125 8.1875 C18.13366589 13.90609953 12.96008272 18.02660608 9 22 C7.86498047 23.13888672 7.86498047 23.13888672 6.70703125 24.30078125 C6.14371094 24.86152344 5.58039063 25.42226562 5 26 C-1.43976048 23.27548595 -6.79048979 18.18976969 -10 12 C-10.94752598 9.05826236 -11.05224791 7.18712229 -11 4 C-8.24378615 -0.59368975 -5.06911798 -0.71145515 0 0 Z " fill="#31661B" transform="translate(246,155)"/>
<path d="M0 0 C4.75686979 2.47357229 7.63429331 5.17759789 10 10 C11.25345869 16.77890925 9.14467477 22.06161862 6 28 C2.49227223 26.65704137 -0.88520636 25.11847675 -4.26733398 23.48657227 C-10.71524725 20.38353963 -17.02439331 17.72338518 -24 16 C-23.38550003 12.66177043 -22.65439171 9.97790508 -21 7 C-17.45756548 8.36591169 -14.07372071 9.90931484 -10.6875 11.625 C-9.80449219 12.07101563 -8.92148438 12.51703125 -8.01171875 12.9765625 C-7.01591797 13.48316406 -7.01591797 13.48316406 -6 14 C-6.48726562 13.42507812 -6.97453125 12.85015625 -7.4765625 12.2578125 C-9.8949913 8.673577 -9.41177338 6.25499164 -9 2 C-5.46569344 -0.35620437 -4.16428713 -0.48991613 0 0 Z " fill="#574D52" transform="translate(130,169)"/>
<path d="M0 0 C2.8100346 1.79363911 4.50940468 3.01880935 6 6 C6.57619651 11.03760382 7.12024176 16.3168415 4.0625 20.625 C0.63238434 23.28508969 -1.50091329 24.08727598 -5.77734375 24.30859375 C-9.71347172 23.76210147 -11.35958289 21.90445882 -14 19 C-15.24133624 15.27599129 -15.54111486 11.86824 -15 8 C-11.43384533 1.35957407 -7.60180799 -1.24474049 0 0 Z " fill="#52484D" transform="translate(265,93)"/>
<path d="M0 0 C4.25491665 0.47276852 6.22542845 2.92547477 9 6 C10.42041821 8.84083641 10.31452272 10.85477278 10 14 C7.26582319 18.22554597 2.89642559 19.37613961 -1.66015625 20.97265625 C-4.05041159 22.02213397 -5.22456112 23.14026729 -7 25 C-7.66 25 -8.32 25 -9 25 C-11.03435531 21.27034861 -12 19.33094958 -12 15 C-12.66 14.360625 -13.32 13.72125 -14 13.0625 C-16 11 -16 11 -16.5 8.5 C-15.81895125 5.09475625 -14.8520847 3.97452017 -12 2 C-7.91874064 1.40636228 -5.75917665 1.58740399 -2.125 3.5625 C0.5771041 6.66197236 0.76683515 8.95847594 1 13 C3.99992729 11.70855022 3.99992729 11.70855022 7 10 C7.33 9.01 7.66 8.02 8 7 C6.576875 7.061875 6.576875 7.061875 5.125 7.125 C2 7 2 7 0 5 C-0.125 2.375 -0.125 2.375 0 0 Z " fill="#51464C" transform="translate(374,172)"/>
<path d="M0 0 C2.75 1.3125 2.75 1.3125 5 3 C5.61875 3.433125 6.2375 3.86625 6.875 4.3125 C8 6 8 6 7.875 9.0625 C7 12 7 12 4 14 C-0.96364462 14.6320746 -5.5048914 14.32005605 -10 12 C-10 14.97 -10 17.94 -10 21 C-8.68 21 -7.36 21 -6 21 C-6 19.35 -6 17.7 -6 16 C-3.625 15.875 -3.625 15.875 -1 16 C-0.34 16.66 0.32 17.32 1 18 C0.75 20.0625 0.75 20.0625 0 22 C-3.10048928 23.55024464 -5.57894218 23.28992015 -9 23 C-11.75329021 21.20437595 -13.52627461 19.94745078 -15 17 C-15.64486862 12.99201911 -15.8673096 9.4437369 -13.73046875 5.88671875 C-9.39367171 0.79019084 -6.88512217 -0.46678794 0 0 Z " fill="#4E4349" transform="translate(329,116)"/>
<path d="M0 0 C1.97996255 3.0239428 3.59468141 6.17939636 5.28125 9.375 C5.8484375 10.24125 6.415625 11.1075 7 12 C7.99 12 8.98 12 10 12 C10.31453125 12.60328125 10.6290625 13.2065625 10.953125 13.828125 C13.23718937 18.09354641 15.26111977 21.81502796 19 25 C13.63150419 30.002462 13.63150419 30.002462 10.99609375 29.9921875 C8.04033515 28.52298459 7.31162653 26.46821438 5.8125 23.5625 C2.74541323 17.96840043 -0.78189474 13.65920393 -5.27734375 9.15625 C-7 7 -7 7 -7 3 C-4.49515403 0.58152803 -3.53986194 0 0 0 Z " fill="#50454B" transform="translate(159,115)"/>
<path d="M0 0 C8.03571429 5.49107143 8.03571429 5.49107143 10.3125 9.8125 C11.67633949 13.2757108 11.67633949 13.2757108 15 14 C15.061875 13.29875 15.12375 12.5975 15.1875 11.875 C16.88330572 5.87445667 20.81110834 3.11333499 26 0 C26 4.29 26 8.58 26 13 C20.31938211 16.95173418 15.89035931 17.94963285 9 17 C6.44648721 16.22080308 4.38749415 15.24348654 2 14 C1.34 13.67 0.68 13.34 0 13 C0 8.71 0 4.42 0 0 Z " fill="#E4E0DD" transform="translate(237,307)"/>
<path d="M0 0 C4.69479269 1.75736363 8.86033299 4.14491635 13.18359375 6.66015625 C16.17318443 8.08238871 18.74583481 8.4993592 22 9 C24.49391592 10.1457289 26.65800553 11.54796343 29 13 C28.125 18.75 28.125 18.75 27 21 C23.49227223 19.65704137 20.11479364 18.11847675 16.73266602 16.48657227 C10.28475275 13.38353963 3.97560669 10.72338518 -3 9 C-2.38550003 5.66177043 -1.65439171 2.97790508 0 0 Z " fill="#4E4449" transform="translate(109,176)"/>
<path d="M0 0 C0.22042969 0.94746094 0.22042969 0.94746094 0.4453125 1.9140625 C2.19000446 8.87277641 4.69683777 15.29617878 7.59765625 21.8359375 C8.79487564 24.5371846 9.92330741 27.24902468 11 30 C7.62902617 31.49821059 5.79557881 32 2 32 C1.70867187 30.98421875 1.41734375 29.9684375 1.1171875 28.921875 C-1.24412262 20.91819435 -3.88212688 13.61843544 -7.86328125 6.2578125 C-9 4 -9 4 -9 2 C-5.62902617 0.50178941 -3.79557881 0 0 0 Z " fill="#4E4449" transform="translate(199,93)"/>
<path d="M0 0 C9.45435096 3.8982395 20.25208099 5.09616795 30.375 6 C30.045 6.99 29.715 7.98 29.375 9 C16.30243616 9.70031592 4.36683867 6.42995617 -7.515625 1.3046875 C-13.69978842 -1.29017504 -19.85411151 -2.5161881 -26.2578125 0.05859375 C-31.6323457 3.01859785 -34.89582464 5.9802219 -37.6875 11.4609375 C-37.996875 11.96882813 -38.30625 12.47671875 -38.625 13 C-39.285 13 -39.945 13 -40.625 13 C-40.17241183 8.02153017 -37.96399133 4.5845054 -34.625 1 C-23.27732463 -7.78093927 -12.38887201 -5.40454148 0 0 Z " fill="#5E5459" transform="translate(293.625,254)"/>
<path d="M0 0 C1.01449219 0.45503906 2.02898437 0.91007812 3.07421875 1.37890625 C14.17471209 6.26758023 25.23492666 7.73047635 37.1875 8.75 C37.1875 9.74 37.1875 10.73 37.1875 11.75 C31.15927224 12.07881242 25.54996403 11.45846655 19.625 10.4375 C18.91738525 10.31979248 18.20977051 10.20208496 17.48071289 10.08081055 C10.16849571 8.75816323 3.82960378 6.07105189 -2.8125 2.75 C-8.45153024 1.07446847 -14.32971524 0.78933369 -19.8125 3.125 C-24.45072104 5.67695294 -27.58947253 9.67624563 -30.9296875 13.703125 C-31.55101562 14.37859375 -32.17234375 15.0540625 -32.8125 15.75 C-33.4725 15.75 -34.1325 15.75 -34.8125 15.75 C-33.68486233 9.56174447 -29.19635145 5.47510776 -24.25390625 1.8984375 C-15.62330175 -3.26768321 -9.25616764 -3.89925172 0 0 Z " fill="#594E54" transform="translate(287.8125,259.25)"/>
<path d="M0 0 C7.53015684 3.51855543 13.15093333 7.72817788 17.375 15.0390625 C17.375 15.6990625 17.375 16.3590625 17.375 17.0390625 C14.8211088 16.66956335 13.67548919 16.41076589 12.0234375 14.3671875 C11.60320312 13.68140625 11.18296875 12.995625 10.75 12.2890625 C6.73755511 6.68373747 1.67179483 3.95134795 -5.03515625 2.52734375 C-11.66374312 2.0423252 -16.58325406 4.6292366 -22.421875 7.5078125 C-32.76728479 12.45342303 -43.36663 12.67988458 -54.625 13.0390625 C-54.625 12.0490625 -54.625 11.0590625 -54.625 10.0390625 C-53.52542969 9.92949219 -52.42585937 9.81992187 -51.29296875 9.70703125 C-39.91936558 8.51537581 -30.0449388 6.64192432 -19.5625 1.8515625 C-12.60255869 -1.18439881 -7.2774671 -2.66407278 0 0 Z " fill="#5A5055" transform="translate(228.625,257.9609375)"/>
<path d="M0 0 C4.60863416 3.88692411 9.74783353 8.28625492 10.74609375 14.47265625 C9.75609375 14.47265625 8.76609375 14.47265625 7.74609375 14.47265625 C6.421875 12.8984375 6.421875 12.8984375 5.05859375 10.78515625 C1.33607104 5.53639923 -3.1746544 2.49907353 -9.25390625 0.47265625 C-16.66737879 -0.22952744 -23.07487723 1.21232238 -30.12890625 3.34765625 C-32.06916098 3.903773 -34.01056408 4.45589959 -35.953125 5.00390625 C-36.8714209 5.26300781 -37.7897168 5.52210938 -38.73583984 5.7890625 C-47.25852948 8.10276533 -55.45211447 8.78453076 -64.25390625 8.47265625 C-63.92390625 7.48265625 -63.59390625 6.49265625 -63.25390625 5.47265625 C-62.68696045 5.40796143 -62.12001465 5.3432666 -61.53588867 5.27661133 C-51.27157218 4.07347935 -41.31147509 2.69432015 -31.37890625 -0.21484375 C-21.68183136 -2.98340832 -9.13811877 -5.67825198 0 0 Z " fill="#574D52" transform="translate(235.25390625,269.52734375)"/>
<path d="M0 0 C6.06208885 1.72213136 11.98388607 2.85838812 18.28491211 3.25634766 C19.97293945 3.36849609 19.97293945 3.36849609 21.69506836 3.48291016 C22.5290918 3.53189453 23.36311523 3.58087891 24.22241211 3.63134766 C24.22241211 4.62134766 24.22241211 5.61134766 24.22241211 6.63134766 C9.81887769 6.29442287 -2.96023542 3.91701389 -16.77758789 -0.11865234 C-24.93714388 -2.33391641 -30.85731762 -2.15025439 -38.41040039 1.92041016 C-41.82139607 4.38578327 -44.05399302 7.37758887 -46.40258789 10.83837891 C-47.08321289 11.72589844 -47.08321289 11.72589844 -47.77758789 12.63134766 C-48.43758789 12.63134766 -49.09758789 12.63134766 -49.77758789 12.63134766 C-48.53139051 6.27290877 -44.25057129 1.23368683 -38.96508789 -2.36865234 C-26.81222807 -8.33349506 -12.13583275 -3.60343144 0 0 Z " fill="#5D5358" transform="translate(302.777587890625,271.36865234375)"/>
<path d="M0 0 C3.58874499 3.28472608 6.310644 6.965966 9 11 C9 11.99 9 12.98 9 14 C8.01 14 7.02 14 6 14 C4.9296875 12.4609375 4.9296875 12.4609375 3.875 10.375 C0.9046838 5.39196208 -2.66594422 2.31509893 -8 0 C-15.34852539 -1.39587374 -22.37755667 0.64199247 -28.9296875 3.984375 C-34.17396449 6.63712211 -39.30671724 7.7859254 -45.0625 8.75 C-45.81845459 8.87761719 -46.57440918 9.00523437 -47.35327148 9.13671875 C-52.28825089 9.90114937 -57.00761793 10.11333444 -62 10 C-62 9.01 -62 8.02 -62 7 C-60.56720703 6.81824219 -60.56720703 6.81824219 -59.10546875 6.6328125 C-55.71163356 6.19293356 -52.32113522 5.73638222 -48.93164062 5.26464844 C-47.30501643 5.04178941 -45.6761488 4.83539416 -44.046875 4.6328125 C-37.2119456 3.63008334 -31.30703812 1.19170792 -25.06640625 -1.66015625 C-16.3658662 -5.4617935 -8.18590271 -4.80505834 0 0 Z " fill="#584E53" transform="translate(237,253)"/>
<path d="M0 0 C9.63790356 4.01179589 18.55557151 5.61794611 28.9375 6.125 C28.6075 7.115 28.2775 8.105 27.9375 9.125 C16.88077241 9.34564423 6.64249641 7.59910724 -3.375 2.9375 C-10.69951017 -0.41991515 -16.75548632 -1.39043074 -24.4375 1.3125 C-28.59464922 4.18291256 -31.46596539 7.22167616 -34.25 11.4375 C-34.848125 12.324375 -35.44625 13.21125 -36.0625 14.125 C-36.7225 14.125 -37.3825 14.125 -38.0625 14.125 C-37.61025862 9.15034487 -35.4043094 5.70375921 -32.0625 2.125 C-21.55742541 -5.86131401 -11.67617721 -5.19889002 0 0 Z " fill="#564C51" transform="translate(291.0625,237.875)"/>
<path d="M0 0 C4.64084943 4.08455713 8.190926 7.7158225 9 14 C4.75196324 12.48284402 3.41464964 9.65856007 1 6 C-4.36914184 1.16777235 -8.23092871 -0.41614119 -15.375 -0.25 C-19.53699838 0.1463808 -23.11802109 1.5046758 -27 3 C-37.55912185 7.0431298 -46.71157116 8.83682954 -58 9 C-58 8.01 -58 7.02 -58 6 C-56.98421875 5.90203125 -55.9684375 5.8040625 -54.921875 5.703125 C-44.67426947 4.62475851 -35.5519823 2.46669397 -26.0625 -1.6875 C-17.15652089 -5.50434819 -8.31735795 -4.94048434 0 0 Z " fill="#574D52" transform="translate(237,238)"/>
<path d="M0 0 C8.6813949 2.91345726 16.89901976 3.64382129 26 4 C26.495 5.485 26.495 5.485 27 7 C15.51620926 7.33340038 5.66651673 6.86725067 -4.8125 1.875 C-12.19284068 -1.46704106 -18.93537129 -2.43744539 -27 -1 C-31.25880351 1.31637362 -33.95347067 3.82459645 -36.75 7.75 C-37.78835572 9.19995619 -38.86175425 10.6270644 -40 12 C-40.66 12 -41.32 12 -42 12 C-41.19006956 6.1049367 -38.26208 2.96414819 -34 -1 C-23.25294306 -9.12251251 -11.31141383 -4.08332288 0 0 Z " fill="#554B50" transform="translate(295,247)"/>
<path d="M0 0 C5.10461955 3.07572214 9.25068571 7.76657719 11.84765625 13.11328125 C11.84765625 13.77328125 11.84765625 14.43328125 11.84765625 15.11328125 C10.85765625 15.11328125 9.86765625 15.11328125 8.84765625 15.11328125 C7.5234375 13.28515625 7.5234375 13.28515625 6.16015625 10.86328125 C3.06274278 6.0660677 0.44075473 3.52307378 -5.15234375 2.11328125 C-14.49230166 0.66154089 -21.86930941 3.04488747 -30.328125 6.60546875 C-36.98957863 9.33596461 -42.96468536 10.36663229 -50.15234375 10.23828125 C-51.17134766 10.22474609 -51.17134766 10.22474609 -52.2109375 10.2109375 C-53.85823116 10.18773618 -55.50533901 10.15188292 -57.15234375 10.11328125 C-57.15234375 9.45328125 -57.15234375 8.79328125 -57.15234375 8.11328125 C-55.87101563 7.95472656 -54.5896875 7.79617187 -53.26953125 7.6328125 C-42.57916368 6.2226952 -33.18571084 4.14525768 -23.15234375 0.11328125 C-15.58981074 -2.69842974 -7.54722697 -3.26994844 0 0 Z " fill="#584E53" transform="translate(234.15234375,243.88671875)"/>
<path d="M0 0 C0 0.99 0 1.98 0 3 C0.31088368 4.67099977 0.64080332 6.33871537 1 8 C-0.32 8 -1.64 8 -3 8 C-3.03996094 8.61488281 -3.07992188 9.22976562 -3.12109375 9.86328125 C-3.46295376 12.50953095 -3.8517617 14.5826562 -5 17 C-7.33914968 18.25218421 -9.40175416 18.78240838 -12.00390625 19.26953125 C-12.66261719 19.51058594 -13.32132812 19.75164062 -14 20 C-14.84832796 22.01003225 -14.84832796 22.01003225 -15 24 C-13.68 24.66 -12.36 25.32 -11 26 C-10.67 23.69 -10.34 21.38 -10 19 C-8.35 19 -6.7 19 -5 19 C-4.67 20.65 -4.34 22.3 -4 24 C-6.62756052 26.5224581 -7.9140389 26.99258956 -11.625 27.3125 C-15 27 -15 27 -17 25 C-16.83131445 20.7828612 -15.93406166 17.65207364 -13.9375 14 C-11.82400173 10.09346169 -11.63378603 7.39456758 -12 3 C-11.38511719 2.95101562 -10.77023437 2.90203125 -10.13671875 2.8515625 C-9.32847656 2.77679688 -8.52023437 2.70203125 -7.6875 2.625 C-6.88699219 2.55539063 -6.08648437 2.48578125 -5.26171875 2.4140625 C-2.72775559 2.10435574 -2.72775559 2.10435574 0 0 Z " fill="#53494E" transform="translate(303,96)"/>
<path d="M0 0 C8.15368865 7.7552536 8.15368865 7.7552536 9 13 C8.01 13 7.02 13 6 13 C4.67578125 11.42578125 4.67578125 11.42578125 3.3125 9.3125 C-0.4015819 4.1874311 -4.16812831 0.65805699 -10.5703125 -0.44140625 C-18.92327203 -0.81026914 -25.96978218 1.94687017 -33.3125 5.6875 C-39.79410221 8.85293364 -46.9515614 8.10264716 -54 8 C-53.67 7.01 -53.34 6.02 -53 5 C-51.92363281 4.92523438 -50.84726563 4.85046875 -49.73828125 4.7734375 C-40.7601086 4.01287276 -33.76766878 2.59582452 -25.734375 -1.66015625 C-17.55288181 -5.66908791 -7.36860988 -5.54484216 0 0 Z " fill="#594F54" transform="translate(237,223)"/>
<path d="M0 0 C7.71811913 3.36067289 15.3856577 4.1351097 23.72021484 4.64624023 C23.72021484 5.63624023 23.72021484 6.62624023 23.72021484 7.64624023 C13.63784921 8.22329137 6.33200367 6.72342497 -2.76416016 2.48999023 C-9.26795397 -0.40979045 -15.17562177 -1.60631078 -22.27978516 -0.35375977 C-28.77840773 2.38708999 -32.37509334 6.3316928 -35.27978516 12.64624023 C-36.26978516 12.64624023 -37.25978516 12.64624023 -38.27978516 12.64624023 C-37.11281319 6.49561152 -32.97570325 1.96905635 -28.15478516 -1.79125977 C-18.39702399 -7.09439083 -9.45150764 -4.29312193 0 0 Z " fill="#584D52" transform="translate(291.27978515625,223.353759765625)"/>
<path d="M0 0 C3.19162198 1.6549151 5.29278786 3.0034738 7.375 5.9375 C8.12155551 8.40113318 8.20758597 10.439773 8 13 C7 14 7 14 4.5625 14.1875 C2 14 2 14 0 12 C0 10.68 0 9.36 0 8 C1.65 8 3.3 8 5 8 C5 7.01 5 6.02 5 5 C-1.715994 5.88927193 -6.40824347 6.81955674 -11 12 C-11.89207179 15.0957107 -11.89207179 15.0957107 -12 18 C-12.33 18.66 -12.66 19.32 -13 20 C-15.58097058 17.41902942 -16.02033471 15.86217583 -16.5625 12.1875 C-16.42188851 7.7706451 -14.45825373 5.47626422 -11.5078125 2.34765625 C-8.12822448 -0.67295998 -4.31497451 -0.58548911 0 0 Z " fill="#4D4248" transform="translate(357,141)"/>
<path d="M0 0 C6.12570633 3.57332869 9.78974867 7.43878249 13 13.75 C13 14.41 13 15.07 13 15.75 C12.01 15.75 11.02 15.75 10 15.75 C8.7109375 13.95703125 8.7109375 13.95703125 7.375 11.5625 C4.12389837 6.47312116 0.7181562 3.72899582 -5 1.75 C-13.00587857 0.15167843 -20.37561815 3.65058738 -27.546875 6.90625 C-35.98566588 10.4863431 -44.00448791 10.12964647 -53 9.75 C-53 9.09 -53 8.43 -53 7.75 C-51.90945312 7.68683594 -50.81890625 7.62367188 -49.6953125 7.55859375 C-41.05669312 6.90680494 -33.66854196 5.57001079 -25.6875 2.125 C-17.21594234 -1.48998265 -8.96952638 -3.41879164 0 0 Z " fill="#50454A" transform="translate(233,228.25)"/>
<path d="M0 0 C8.69773898 3.12813419 16.75579942 4.69740751 26 5 C26 5.66 26 6.32 26 7 C14.11678151 7.87560557 5.29116585 6.73971029 -5.5234375 1.62890625 C-11.65942896 -1.24604705 -17.39423388 -1.99709208 -24 0 C-29.99148408 2.42456944 -33.52226338 7.78339507 -37 13 C-37.66 13 -38.32 13 -39 13 C-38.23240838 6.70352384 -34.40735792 3.26757231 -30 -1 C-21.17895067 -7.76964251 -9.2384448 -3.79573985 0 0 Z " fill="#53484E" transform="translate(292,231)"/>
<path d="M0 0 C2.875 1.625 2.875 1.625 5 4 C5.8125 7.25 5.8125 7.25 6 10 C-2.67359349 14.30251377 -2.67359349 14.30251377 -7.5625 13.1875 C-10 11 -10 11 -11.125 7.5625 C-11 4 -11 4 -9.5 1.5625 C-6.06320747 -0.58549533 -3.98874294 -0.55982357 0 0 Z " fill="#53494E" transform="translate(369,174)"/>
<path d="M0 0 C0.99 0.86625 1.98 1.7325 3 2.625 C9.90133726 8.81148452 9.90133726 8.81148452 18 13 C16.55140574 16.38005327 14.62669829 18.4587228 12 21 C11.52691406 20.49210937 11.05382812 19.98421875 10.56640625 19.4609375 C5.79198486 14.49107196 0.87652156 10.59120762 -5 7 C-3.35 4.69 -1.7 2.38 0 0 Z " fill="#4F444A" transform="translate(141,143)"/>
<path d="M0 0 C0.12117187 0.95261719 0.24234375 1.90523438 0.3671875 2.88671875 C0.53476563 4.14097656 0.70234375 5.39523438 0.875 6.6875 C1.11863281 8.54955078 1.11863281 8.54955078 1.3671875 10.44921875 C1.92724307 13.59175278 2.78182589 16.0774058 4 19 C4 19.99 4 20.98 4 22 C1.03 22.33 -1.94 22.66 -5 23 C-5.03738281 22.16597656 -5.07476562 21.33195312 -5.11328125 20.47265625 C-5.52381216 13.4453331 -6.44234969 7.56092905 -9 1 C-5.8035914 -0.06546953 -3.34252724 -0.07427838 0 0 Z " fill="#4C4247" transform="translate(230,95)"/>
<path d="M0 0 C4.09077982 0.73634037 5.50525275 2.4188033 8.125 5.5625 C10.08266918 9.47783836 9.48874641 14.28385573 9.125 18.5625 C7.6875 21.75 7.6875 21.75 6.125 23.5625 C5.795 23.5625 5.465 23.5625 5.125 23.5625 C5.02703125 22.83804688 4.9290625 22.11359375 4.828125 21.3671875 C3.92044233 15.49854955 3.13248998 11.05574634 -0.875 6.5625 C-1.865 6.5625 -2.855 6.5625 -3.875 6.5625 C-4.535 7.8825 -5.195 9.2025 -5.875 10.5625 C-6.09431821 7.34583296 -6.14328383 5.12887697 -4.75 2.1875 C-2.875 0.5625 -2.875 0.5625 0 0 Z " fill="#4E4349" transform="translate(172.875,115.4375)"/>
<path d="M0 0 C1.9375 1.125 1.9375 1.125 3 3 C2.875 6.0625 2.875 6.0625 2 9 C-1.10986207 11.07324138 -1.89108387 11.27392186 -5.4375 11.25 C-6.19933594 11.25515625 -6.96117187 11.2603125 -7.74609375 11.265625 C-10.21443018 10.9747292 -11.857686 10.22975656 -14 9 C-11.70175663 2.79474289 -6.64941468 -1.18211817 0 0 Z " fill="#52474D" transform="translate(334,119)"/>
<path d="M0 0 C-0.42152344 0.75023438 -0.84304688 1.50046875 -1.27734375 2.2734375 C-4.84457481 8.93786447 -6.96639289 14.4047929 -7 22 C-10.84375 20.203125 -10.84375 20.203125 -12.25 18.375 C-13.35361619 14.8802154 -13.57388717 11.59543772 -13 8 C-9.66928746 1.79798354 -7.04646165 -0.31317607 0 0 Z " fill="#4E4349" transform="translate(263,93)"/>
<path d="M0 0 C1.32 0 2.64 0 4 0 C4.4516605 6.82509193 4.73492707 13.53437431 0 19 C-2.078125 19.7734375 -2.078125 19.7734375 -4 20 C-5 19 -5 19 -5.375 15.0625 C-5.35633974 9.25915887 -2.87224778 4.91359531 0 0 Z " fill="#E6E2DF" transform="translate(261,95)"/>
<path d="M0 0 C1.8125 0.0625 1.8125 0.0625 4 1 C8.58275879 6.89211845 9.14086681 10.67492611 9 18 C5.52867905 16.59070303 4.11906726 15.09394917 2.25 11.875 C1.60804688 10.78832031 1.60804688 10.78832031 0.953125 9.6796875 C0.63859375 9.12539062 0.3240625 8.57109375 0 8 C-0.99 8.495 -0.99 8.495 -2 9 C-1.125 1.125 -1.125 1.125 0 0 Z " fill="#E4DFDD" transform="translate(169,121)"/>
<path d="M0 0 C5.91098427 0.56295088 9.81290646 2.66710022 13.875 7 C15 9 15 9 15 13 C9.14502882 12.70725144 4.99772528 10.15038305 1 6 C0 2.625 0 2.625 0 0 Z " fill="#E5E1DF" transform="translate(123,175)"/>
<path d="M0 0 C2 1 2 1 2.59423828 2.77832031 C2.75134277 3.53725586 2.90844727 4.29619141 3.0703125 5.078125 C3.33134766 6.32529297 3.33134766 6.32529297 3.59765625 7.59765625 C3.85869141 8.91056641 3.85869141 8.91056641 4.125 10.25 C4.30675781 11.10980469 4.48851562 11.96960938 4.67578125 12.85546875 C5.51927943 16.9714862 6.17551183 20.77973828 6 25 C6.29749946 26.67343448 6.62127066 28.34305915 7 30 C6.67 29.01 6.34 28.02 6 27 C5.34 27 4.68 27 4 27 C3.67 27.66 3.34 28.32 3 29 C2.32193683 25.8148163 1.65964849 22.62654387 1 19.4375 C0.71382813 18.09461914 0.71382813 18.09461914 0.421875 16.72460938 C-2.13352273 4.26704545 -2.13352273 4.26704545 0 0 Z " fill="#564B51" transform="translate(325,239)"/>
<path d="M0 0 C0 0.66 0 1.32 0 2 C-1.12535156 2.00386719 -1.12535156 2.00386719 -2.2734375 2.0078125 C-10.13827481 2.3049726 -15.95081895 3.79437448 -22 9 C-23.59457441 11.08983046 -24.87067249 13.12109966 -26.0625 15.4609375 C-26.371875 15.96882813 -26.68125 16.47671875 -27 17 C-27.66 17 -28.32 17 -29 17 C-28.54741183 12.02153017 -26.33899133 8.5845054 -23 5 C-16.07237467 -0.36066246 -8.64349006 -2.88116335 0 0 Z " fill="#574C51" transform="translate(282,250)"/>
<path d="M0 0 C0 0.66 0 1.32 0 2 C-0.75023437 2.01417969 -1.50046875 2.02835937 -2.2734375 2.04296875 C-9.75003857 2.39137459 -15.89052866 3.47329326 -22 8 C-24.08104587 10.3049803 -25.88197389 12.63858172 -27.625 15.20703125 C-28.305625 16.09455078 -28.305625 16.09455078 -29 17 C-29.66 17 -30.32 17 -31 17 C-29.88113137 11.29122708 -26.45593741 7.13804989 -22.12890625 3.37109375 C-15.2768558 -1.17535182 -7.89819091 -0.46827219 0 0 Z " fill="#50454B" transform="translate(284,267)"/>
<path d="M0 0 C2 3 2 3 2 6 C3.65 6 5.3 6 7 6 C7.33 6.66 7.66 7.32 8 8 C6.02 8.33 4.04 8.66 2 9 C1.67 11.31 1.34 13.62 1 16 C0.34 15.67 -0.32 15.34 -1 15 C-1.625 12.4375 -1.625 12.4375 -2 10 C-3.98 9.34 -5.96 8.68 -8 8 C-7.67 7.34 -7.34 6.68 -7 6 C-6.195625 5.896875 -5.39125 5.79375 -4.5625 5.6875 C-3.716875 5.460625 -2.87125 5.23375 -2 5 C-0.62533375 2.52363988 -0.62533375 2.52363988 0 0 Z " fill="#5B5156" transform="translate(336,204)"/>
<path d="M0 0 C2 2 2 2 2 6 C4.97 6.495 4.97 6.495 8 7 C6 9 6 9 3 10 C1.77479736 13.00847418 1.77479736 13.00847418 1 16 C-1 13 -1 13 -1 10 C-3.31 9.34 -5.62 8.68 -8 8 C-5.35261084 6.5393715 -4.10551666 6 -1 6 C-0.67 4.02 -0.34 2.04 0 0 Z " fill="#594F54" transform="translate(172,202)"/>
<path d="M0 0 C7.36571071 1.18965087 14.69481007 2.48077909 22 4 C21.34 4.33 20.68 4.66 20 5 C20 5.66 20 6.32 20 7 C18.93523437 6.79503906 17.87046875 6.59007812 16.7734375 6.37890625 C7.49836266 4.64110436 -1.559432 3.43387713 -11 3 C-11 2.67 -11 2.34 -11 2 C-7.37 2 -3.74 2 0 2 C0 1.34 0 0.68 0 0 Z " fill="#5F5559" transform="translate(286,277)"/>
<path d="M0 0 C3.2458704 3.02201727 5.71501305 5.94252339 7.875 9.8125 C7.875 10.4725 7.875 11.1325 7.875 11.8125 C6.885 11.8125 5.895 11.8125 4.875 11.8125 C3.55078125 9.984375 3.55078125 9.984375 2.1875 7.5625 C-0.86221614 2.78511215 -3.68223552 0.42081239 -9.125 -1.1875 C-12.12478722 -1.72867468 -15.08114513 -2.04658079 -18.125 -2.1875 C-18.125 -2.5175 -18.125 -2.8475 -18.125 -3.1875 C-10.85504818 -4.31559597 -5.93101945 -4.95710666 0 0 Z " fill="#53484D" transform="translate(238.125,247.1875)"/>
<path d="M0 0 C0.66 0.33 1.32 0.66 2 1 C2 1.66 2 2.32 2 3 C0.865625 3.45375 -0.26875 3.9075 -1.4375 4.375 C-6.48236523 6.83898052 -9.57872501 10.68724339 -13.1171875 14.953125 C-13.73851562 15.62859375 -14.35984375 16.3040625 -15 17 C-15.66 17 -16.32 17 -17 17 C-16.0688195 11.77374945 -12.78311556 8.53836686 -9 5 C-6.14271171 3.01434778 -3.26874246 1.21828894 0 0 Z " fill="#564C51" transform="translate(270,258)"/>
<path d="M0 0 C5.26029346 0.37573525 8.5008754 2.15377725 12 6 C17 12.8503937 17 12.8503937 17 16 C16.01 16 15.02 16 14 16 C12.67578125 14.20703125 12.67578125 14.20703125 11.3125 11.8125 C8.62108579 7.50081377 6.01152193 5.30939067 1.5390625 2.97265625 C1.03117188 2.65167969 0.52328125 2.33070313 0 2 C0 1.34 0 0.68 0 0 Z " fill="#574D52" transform="translate(229,228)"/>
<path d="M0 0 C0.66 0.66 1.32 1.32 2 2 C1.8125 4 1.8125 4 1 6 C-2.22791555 8.1519437 -3.28400809 8.20086443 -7 8 C-7.6875 5.6875 -7.6875 5.6875 -8 3 C-5.93469402 -0.32743741 -3.72952011 -0.4781436 0 0 Z " fill="#52484D" transform="translate(228,84)"/>
<path d="M0 0 C6.6 0.66 13.2 1.32 20 2 C20 2.99 20 3.98 20 5 C12.2723068 5.31806054 6.06075526 5.32270836 -1 2 C-0.67 1.34 -0.34 0.68 0 0 Z " fill="#5D5358" transform="translate(295,226)"/>
<path d="M0 0 C1.65 0.33 3.3 0.66 5 1 C4.125 7.875 4.125 7.875 3 9 C1.33382885 9.04063832 -0.33388095 9.042721 -2 9 C-2.6875 6.75 -2.6875 6.75 -3 4 C-1.5625 1.6875 -1.5625 1.6875 0 0 Z " fill="#4E4349" transform="translate(132,137)"/>
<path d="M0 0 C-0.32284986 3.01326538 -1.03365384 4.03461538 -3.1875 6.25 C-6.43411922 8.27011863 -8.24742282 8.34907695 -12 8 C-9.82021749 2.45146271 -6.05820197 -0.69236594 0 0 Z " fill="#E4DFDD" transform="translate(333,119)"/>
<path d="M0 0 C1.81592199 2.90547519 1.99991048 5.62379154 2.25 9 C1.25 10 1.25 10 -1.1875 10.1875 C-3.75 10 -3.75 10 -5.75 8 C-5.75 6.68 -5.75 5.36 -5.75 4 C-4.1 4 -2.45 4 -0.75 4 C-0.75 3.01 -0.75 2.02 -0.75 1 C-2.73 1 -4.71 1 -6.75 1 C-6.75 0.67 -6.75 0.34 -6.75 0 C-2.31 -1.32 -2.31 -1.32 0 0 Z " fill="#594F54" transform="translate(362.75,145)"/>
<path d="M0 0 C8.01470585 0.54278267 16.01303902 1.13505261 24 2 C24 2.66 24 3.32 24 4 C15.73252149 4.23658921 8.07953776 3.81344335 0 2 C0 1.34 0 0.68 0 0 Z " fill="#4C4147" transform="translate(306,282)"/>
<path d="M0 0 C5.94 0.99 5.94 0.99 12 2 C8 4 8 4 4 4 C4 5.65 4 7.3 4 9 C2.68 9 1.36 9 0 9 C-1.125 2.25 -1.125 2.25 0 0 Z " fill="#DBD7D5" transform="translate(319,128)"/>
<path d="M0 0 C6.27 0.33 12.54 0.66 19 1 C19 1.99 19 2.98 19 4 C13.06 3.67 7.12 3.34 1 3 C0.67 2.01 0.34 1.02 0 0 Z " fill="#554A50" transform="translate(308,274)"/>
<path d="M0 0 C2.375 -0.125 2.375 -0.125 5 0 C5.66 0.66 6.32 1.32 7 2 C6.75 4.0625 6.75 4.0625 6 6 C2.98675805 7.50662097 0.31713623 7.17770373 -3 7 C-3.66 6.34 -4.32 5.68 -5 5 C-3.35 5 -1.7 5 0 5 C0 3.35 0 1.7 0 0 Z " fill="#5A4F54" transform="translate(323,132)"/>
<path d="M0 0 C0.33 1.32 0.66 2.64 1 4 C-1.75078884 4.91692961 -3.35948913 5.10886083 -6.1875 5.0625 C-8.0746875 5.0315625 -8.0746875 5.0315625 -10 5 C-10 3.68 -10 2.36 -10 1 C-6.78548731 -0.60725635 -3.56387464 -0.05748185 0 0 Z " fill="#E8E4E1" transform="translate(373,181)"/>
<path d="M0 0 C5.61 0 11.22 0 17 0 C17.33 0.99 17.66 1.98 18 3 C15.93757383 3.02717692 13.87504297 3.0464758 11.8125 3.0625 C10.66394531 3.07410156 9.51539063 3.08570313 8.33203125 3.09765625 C5.40699414 3.01192832 2.83683709 2.67849023 0 2 C0 1.34 0 0.68 0 0 Z " fill="#594F54" transform="translate(304,251)"/>
<path d="M0 0 C5.73842251 -0.20413361 10.60539047 -0.27141454 16 2 C14.94921875 3.55078125 14.94921875 3.55078125 13 5 C9.64453125 4.85546875 9.64453125 4.85546875 5.8125 4.1875 C4.54019531 3.97480469 3.26789063 3.76210938 1.95703125 3.54296875 C0.49330078 3.27419922 0.49330078 3.27419922 -1 3 C-0.67 2.01 -0.34 1.02 0 0 Z " fill="#5F555A" transform="translate(272,257)"/>
<path d="M0 0 C2 3 2 3 2 6 C2.99 6 3.98 6 5 6 C5 6.66 5 7.32 5 8 C4.01 8.33 3.02 8.66 2 9 C1.67 10.65 1.34 12.3 1 14 C-1 11 -1 11 -2 9 C-4.02463255 8.34786708 -4.02463255 8.34786708 -6 8 C-6 7.34 -6 6.68 -6 6 C-5.38125 5.938125 -4.7625 5.87625 -4.125 5.8125 C-1.72238859 5.171081 -1.72238859 5.171081 -0.75 2.4375 C-0.5025 1.633125 -0.255 0.82875 0 0 Z " fill="#5F555A" transform="translate(299,194)"/>
<path d="M0 0 C0.33 0.66 0.66 1.32 1 2 C1.66 2 2.32 2 3 2 C2.71715982 3.77226453 2.42339502 5.542788 2.125 7.3125 C1.96257812 8.29863281 1.80015625 9.28476562 1.6328125 10.30078125 C1 13 1 13 -1 16 C-1.66 16 -2.32 16 -3 16 C-2.40984815 10.49191603 -1.43336231 5.35121931 0 0 Z " fill="#60565A" transform="translate(157,264)"/>
<path d="M0 0 C1.2375 0.495 1.2375 0.495 2.5 1 C2.5 1.66 2.5 2.32 2.5 3 C-3.11 3 -8.72 3 -14.5 3 C-14.17 2.01 -13.84 1.02 -13.5 0 C-9.2617491 -2.11912545 -4.38187654 -1.25196473 0 0 Z " fill="#4F444A" transform="translate(230.5,235)"/>
<path d="M0 0 C0.185625 0.61875 0.37125 1.2375 0.5625 1.875 C2.71437233 5.05602866 5.37533763 5.19451947 9 6 C8.6875 7.875 8.6875 7.875 8 10 C5 12 5 12 2 12 C1.690625 10.88625 1.38125 9.7725 1.0625 8.625 C0.17673517 5.2054845 0.17673517 5.2054845 -1 3 C-0.67 2.01 -0.34 1.02 0 0 Z " fill="#D7D2D1" transform="translate(373,173)"/>
<path d="M0 0 C1.65 0.33 3.3 0.66 5 1 C5.38218767 2.65614657 5.71395102 4.32457024 6 6 C5 7 5 7 1.5625 7.1875 C-2 7 -2 7 -4 5 C-3.01 5 -2.02 5 -1 5 C-0.67 3.35 -0.34 1.7 0 0 Z " fill="#53494E" transform="translate(349,156)"/>
<path d="M0 0 C0.33 0 0.66 0 1 0 C0.52013969 5.56890517 -0.29915181 10.67067568 -2 16 C-2.66 16 -3.32 16 -4 16 C-3.6083965 10.04492601 -2.62875405 5.37180176 0 0 Z " fill="#4D4348" transform="translate(155,279)"/>
<path d="M0 0 C0.66 0.33 1.32 0.66 2 1 C-1.34749528 5.04489013 -5.06899565 6.59114161 -10 8 C-10.66 8 -11.32 8 -12 8 C-11 5 -11 5 -8.56640625 3.578125 C-7.57511719 3.13984375 -6.58382812 2.7015625 -5.5625 2.25 C-4.57378906 1.80140625 -3.58507812 1.3528125 -2.56640625 0.890625 C-1.29603516 0.44976562 -1.29603516 0.44976562 0 0 Z " fill="#52474D" transform="translate(209,260)"/>
<path d="M0 0 C0.99 0.33 1.98 0.66 3 1 C3.66 4.63 4.32 8.26 5 12 C4.01 12.33 3.02 12.66 2 13 C0.54815522 8.46298506 -0.23509196 4.81938524 0 0 Z " fill="#5D5358" transform="translate(344,279)"/>
<path d="M0 0 C0.33 0 0.66 0 1 0 C1.22514824 5.4035577 0.69166838 9.83595969 -1 15 C-1.99 15.33 -2.98 15.66 -4 16 C-3.52546129 13.51986371 -3.04561015 11.04096744 -2.5625 8.5625 C-2.42779297 7.85544922 -2.29308594 7.14839844 -2.15429688 6.41992188 C-1.11328125 1.11328125 -1.11328125 1.11328125 0 0 Z " fill="#4A3F45" transform="translate(170,266)"/>
<path d="M0 0 C0.125 5.75 0.125 5.75 -1 8 C-2.32 7.67 -3.64 7.34 -5 7 C-5.33 5.68 -5.66 4.36 -6 3 C-2.25 0 -2.25 0 0 0 Z " fill="#D5D0CE" transform="translate(293,114)"/>
<path d="M0 0 C2.33094534 0.3496418 4.66404762 0.68554487 7 1 C7 1.33 7 1.66 7 2 C6.20335937 2.04898438 5.40671875 2.09796875 4.5859375 2.1484375 C-3.38157314 2.70029395 -3.38157314 2.70029395 -11 5 C-9.96508351 2.17750049 -9.30084735 1.16625774 -6.625 -0.3125 C-3.73338772 -1.06982703 -2.78269959 -0.90028516 0 0 Z " fill="#5E5459" transform="translate(272,212)"/>
<path d="M0 0 C1.32 0 2.64 0 4 0 C3.690625 0.763125 3.38125 1.52625 3.0625 2.3125 C2.32106407 4.18789677 1.63771783 6.08684652 1 8 C2.32 7.67 3.64 7.34 5 7 C3.68 9.31 2.36 11.62 1 14 C0.67 14 0.34 14 0 14 C0 9.38 0 4.76 0 0 Z " fill="#DAD6D4" transform="translate(252,236)"/>
<path d="M0 0 C5.4389165 -0.21755666 9.87080814 -0.10428384 15 2 C15 2.66 15 3.32 15 4 C9.72 3.34 4.44 2.68 -1 2 C-0.67 1.34 -0.34 0.68 0 0 Z " fill="#4D4248" transform="translate(272,211)"/>
<path d="M0 0 C1.46179688 0.06960937 1.46179688 0.06960937 2.953125 0.140625 C4.43039063 0.19476563 4.43039063 0.19476563 5.9375 0.25 C6.68515625 0.29640625 7.4328125 0.3428125 8.203125 0.390625 C8.203125 1.050625 8.203125 1.710625 8.203125 2.390625 C3.253125 3.050625 -1.696875 3.710625 -6.796875 4.390625 C-2.796875 0.390625 -2.796875 0.390625 0 0 Z " fill="#4E4449" transform="translate(219.796875,241.609375)"/>
<path d="M0 0 C4.56454251 0.54339792 7.9728176 1.79463821 12 4 C11.67 4.99 11.34 5.98 11 7 C7.37 5.35 3.74 3.7 0 2 C0 1.34 0 0.68 0 0 Z " fill="#53494E" transform="translate(283,221)"/>
<path d="M0 0 C0.33 0 0.66 0 1 0 C1.3267114 4.73731534 1.43181699 7.15178806 -0.75 11.4375 C-2.94435756 13.93662944 -3.75110346 14.76793596 -7 15 C-6.8125 13.25 -6.8125 13.25 -6 11 C-5.175 10.401875 -4.35 9.80375 -3.5 9.1875 C-0.63596374 7.11998336 -0.63596374 7.11998336 -0.1875 3.25 C-0.125625 2.1775 -0.06375 1.105 0 0 Z " fill="#5A5055" transform="translate(352,306)"/>
<path d="M0 0 C2.07912902 3.11869354 2.30503876 4.27054261 2.5625 7.875 C2.84450046 11.31943416 3.21283557 14.62643817 4 18 C3.67 17.01 3.34 16.02 3 15 C2.34 15 1.68 15 1 15 C0.67 15.66 0.34 16.32 0 17 C-0.04241723 14.66705225 -0.04092937 12.33297433 0 10 C0.33 9.67 0.66 9.34 1 9 C0.91062197 7.47480724 0.75462854 5.95318071 0.5625 4.4375 C0.46066406 3.61121094 0.35882813 2.78492188 0.25390625 1.93359375 C0.17011719 1.29550781 0.08632813 0.65742188 0 0 Z " fill="#7D7477" transform="translate(328,251)"/>
<path d="M0 0 C0.66 0.33 1.32 0.66 2 1 C1.360625 1.78375 0.72125 2.5675 0.0625 3.375 C-1.98142313 5.79539281 -1.98142313 5.79539281 -3 8 C-3.66 8 -4.32 8 -5 8 C-5.2475 8.639375 -5.495 9.27875 -5.75 9.9375 C-7 12 -7 12 -9.078125 12.62890625 C-10.02945313 12.81259766 -10.02945313 12.81259766 -11 13 C-7.61227103 8.30840284 -4.21814817 3.9700218 0 0 Z " fill="#D5D0CE" transform="translate(264,247)"/>
<path d="M0 0 C5.19209404 -0.21192221 9.126739 0.4087311 14 2 C14 2.66 14 3.32 14 4 C8.99109914 3.38487182 3.99367864 2.7282448 -1 2 C-0.67 1.34 -0.34 0.68 0 0 Z " fill="#4B4046" transform="translate(273,242)"/>
<path d="M0 0 C1.98567708 0.09765625 3.97135417 0.1953125 5.95703125 0.29296875 C5.95703125 1.28296875 5.95703125 2.27296875 5.95703125 3.29296875 C2.32703125 3.29296875 -1.30296875 3.29296875 -5.04296875 3.29296875 C-2.04296875 0.29296875 -2.04296875 0.29296875 0 0 Z " fill="#52484D" transform="translate(221.04296875,218.70703125)"/>
<path d="M0 0 C3.58588324 0.38766305 6.69987921 1.58566252 10 3 C9.67 3.99 9.34 4.98 9 6 C5.27566618 4.7874262 1.62197194 3.49140021 -2 2 C-1.34 1.34 -0.68 0.68 0 0 Z " fill="#564C51" transform="translate(287,214)"/>
<path d="M0 0 C-1.77444972 2.24606427 -2.58352485 2.95081002 -5.48046875 3.29296875 C-6.37378906 3.25816406 -7.26710937 3.22335938 -8.1875 3.1875 C-9.08855469 3.16042969 -9.98960937 3.13335937 -10.91796875 3.10546875 C-11.94857422 3.05326172 -11.94857422 3.05326172 -13 3 C-13 2.34 -13 1.68 -13 1 C-8.62426048 0.40667939 -4.42471556 -0.13827236 0 0 Z " fill="#4B4146" transform="translate(190,251)"/>
<path d="M0 0 C0.99 0.33 1.98 0.66 3 1 C3.33 3.31 3.66 5.62 4 8 C3.34 8 2.68 8 2 8 C1.67 8.66 1.34 9.32 1 10 C0.67 6.7 0.34 3.4 0 0 Z " fill="#5F5559" transform="translate(337,250)"/>
<path d="M0 0 C0 0.99 0 1.98 0 3 C-4.62 2.34 -9.24 1.68 -14 1 C-14 0.67 -14 0.34 -14 0 C-8.97874074 -0.77916092 -5.02296004 -1.13016601 0 0 Z " fill="#685E63" transform="translate(234,244)"/>
<path d="M0 0 C1.65 0 3.3 0 5 0 C5 0.66 5 1.32 5 2 C6.98 2 8.96 2 11 2 C11 2.33 11 2.66 11 3 C5.72 3 0.44 3 -5 3 C-5 2.67 -5 2.34 -5 2 C-3.35 1.67 -1.7 1.34 0 1 C0 0.67 0 0.34 0 0 Z " fill="#696064" transform="translate(309,220)"/>
<path d="M0 0 C-2.57404971 3.86107457 -4.61020259 3.94319692 -9 5 C-8.875 3.125 -8.875 3.125 -8 1 C-2.71910112 -1.35955056 -2.71910112 -1.35955056 0 0 Z " fill="#5B5156" transform="translate(209,216)"/>
<path d="M0 0 C0.66 0.33 1.32 0.66 2 1 C2 1.66 2 2.32 2 3 C0.71349294 3.69710731 -0.57940665 4.38242876 -1.875 5.0625 C-2.95394531 5.63677734 -2.95394531 5.63677734 -4.0546875 6.22265625 C-4.69664062 6.47917969 -5.33859375 6.73570312 -6 7 C-6.66 6.67 -7.32 6.34 -8 6 C-5.54080489 3.3651481 -3.42227589 1.25483449 0 0 Z " fill="#4F454A" transform="translate(270,258)"/>
<path d="M0 0 C0.66 0.33 1.32 0.66 2 1 C2.4140625 3.06640625 2.4140625 3.06640625 2.625 5.5625 C2.69976562 6.38878906 2.77453125 7.21507812 2.8515625 8.06640625 C2.92503906 9.02353516 2.92503906 9.02353516 3 10 C2.67 9.01 2.34 8.02 2 7 C1.34 7 0.68 7 0 7 C-0.33 7.66 -0.66 8.32 -1 9 C-1.125 2.25 -1.125 2.25 0 0 Z " fill="#6A6064" transform="translate(325,239)"/>
<path d="M0 0 C0.66 0.33 1.32 0.66 2 1 C2 1.66 2 2.32 2 3 C-3.75 6 -3.75 6 -6 6 C-6.33 5.01 -6.66 4.02 -7 3 C-4.69631264 1.93347808 -2.35981813 0.93578995 0 0 Z " fill="#584E53" transform="translate(208,230)"/>
<path d="M0 0 C4.93928888 -0.3367697 5.78492722 -0.16130459 10 3 C6.37 3 2.74 3 -1 3 C-0.67 2.01 -0.34 1.02 0 0 Z " fill="#645A5E" transform="translate(172,275)"/>
<path d="M0 0 C1.99788438 0.34578768 3.99759451 0.68143549 6 1 C6 1.33 6 1.66 6 2 C0.06 2.495 0.06 2.495 -6 3 C-6.33 2.01 -6.66 1.02 -7 0 C-3.70955471 -1.0968151 -3.16885176 -0.90538622 0 0 Z " fill="#685F63" transform="translate(273,243)"/>
<path d="M0 0 C0.66 0 1.32 0 2 0 C2.66 3.3 3.32 6.6 4 10 C3.01 10 2.02 10 1 10 C0.67 6.7 0.34 3.4 0 0 Z " fill="#4A3F45" transform="translate(330,271)"/>
<path d="M0 0 C1.75 0.875 1.75 0.875 2.75 2.875 C-0.55 3.205 -3.85 3.535 -7.25 3.875 C-2.85 -0.15833333 -2.85 -0.15833333 0 0 Z " fill="#5F5559" transform="translate(194.25,250.125)"/>
<path d="M0 0 C0.33 0.66 0.66 1.32 1 2 C-1.64 2.66 -4.28 3.32 -7 4 C-7.33 3.01 -7.66 2.02 -8 1 C-3.375 -1.125 -3.375 -1.125 0 0 Z " fill="#60565B" transform="translate(217,221)"/>
<path d="M0 0 C0.33 0.66 0.66 1.32 1 2 C1.66 2 2.32 2 3 2 C2.67 4.31 2.34 6.62 2 9 C1.01 8.67 0.02 8.34 -1 8 C-0.67 5.36 -0.34 2.72 0 0 Z " fill="#645A5E" transform="translate(150,293)"/>
<path d="M0 0 C0.66 0.33 1.32 0.66 2 1 C-0.35684596 4.34920216 -3.06799526 7.14723863 -6 10 C-4.79157144 5.56909529 -3.48331435 3.01887244 0 0 Z " fill="#D7D2D0" transform="translate(262,226)"/>
<path d="M0 0 C0.33 0 0.66 0 1 0 C1 2.31 1 4.62 1 7 C0.01 7.33 -0.98 7.66 -2 8 C-1.125 1.125 -1.125 1.125 0 0 Z " fill="#53494E" transform="translate(153,287)"/>
<path d="M0 0 C-1 2 -1 2 -4.0625 3.125 C-5.031875 3.41375 -6.00125 3.7025 -7 4 C-7 2.68 -7 1.36 -7 0 C-3.86650268 -1.04449911 -3.01031744 -0.93423645 0 0 Z " fill="#5F5559" transform="translate(273,268)"/>
<path d="M0 0 C0.33 0.66 0.66 1.32 1 2 C1.66 2 2.32 2 3 2 C2.67 3.98 2.34 5.96 2 8 C1.01 8 0.02 8 -1 8 C-0.67 5.36 -0.34 2.72 0 0 Z " fill="#5F565A" transform="translate(162,243)"/>
<path d="M0 0 C0.66 0.33 1.32 0.66 2 1 C1.34 1.66 0.68 2.32 0 3 C0.33 3.66 0.66 4.32 1 5 C0.01 5.495 0.01 5.495 -1 6 C-2.13350534 8.01669827 -2.13350534 8.01669827 -3 10 C-3.36923077 4.58461538 -3.36923077 4.58461538 -1.5 1.625 C-1.005 1.08875 -0.51 0.5525 0 0 Z " fill="#6B6266" transform="translate(170,116)"/>
</svg>
